<mxfile host="65bd71144e">
    <diagram id="vB79qYsdDrE1G8WzUU7l" name="Page-1">
        <mxGraphModel dx="658" dy="476" grid="1" gridSize="10" guides="1" tooltips="1" connect="1" arrows="1" fold="1" page="1" pageScale="1" pageWidth="850" pageHeight="1100" math="0" shadow="0">
            <root>
                <mxCell id="0"/>
                <mxCell id="1" parent="0"/>
                <mxCell id="6" style="edgeStyle=none;html=1;exitX=1;exitY=0.5;exitDx=0;exitDy=0;exitPerimeter=0;" edge="1" parent="1" source="2" target="19">
                    <mxGeometry relative="1" as="geometry"/>
                </mxCell>
                <mxCell id="2" value="Start" style="strokeWidth=2;html=1;shape=mxgraph.flowchart.start_1;whiteSpace=wrap;fillColor=#d5e8d4;strokeColor=#82b366;" vertex="1" parent="1">
                    <mxGeometry x="190" y="260" width="100" height="60" as="geometry"/>
                </mxCell>
                <mxCell id="5" value="yes" style="edgeStyle=none;html=1;" edge="1" parent="1" source="3" target="4">
                    <mxGeometry relative="1" as="geometry"/>
                </mxCell>
                <mxCell id="17" value="no" style="edgeStyle=none;html=1;exitX=1;exitY=0.5;exitDx=0;exitDy=0;exitPerimeter=0;" edge="1" parent="1" source="3" target="16">
                    <mxGeometry relative="1" as="geometry"/>
                </mxCell>
                <mxCell id="3" value="user input&lt;br&gt;== quit" style="strokeWidth=2;html=1;shape=mxgraph.flowchart.decision;whiteSpace=wrap;fillColor=#fff2cc;strokeColor=#d6b656;" vertex="1" parent="1">
                    <mxGeometry x="350" y="370" width="100" height="100" as="geometry"/>
                </mxCell>
                <mxCell id="4" value="Quit" style="strokeWidth=2;html=1;shape=mxgraph.flowchart.start_1;whiteSpace=wrap;fillColor=#f8cecc;strokeColor=#b85450;" vertex="1" parent="1">
                    <mxGeometry x="190" y="390" width="100" height="60" as="geometry"/>
                </mxCell>
                <mxCell id="9" style="edgeStyle=none;html=1;exitX=0.5;exitY=0;exitDx=0;exitDy=0;exitPerimeter=0;" edge="1" parent="1" source="8" target="3">
                    <mxGeometry relative="1" as="geometry"/>
                </mxCell>
                <mxCell id="8" value="Draw to screen" style="strokeWidth=2;html=1;shape=mxgraph.flowchart.display;whiteSpace=wrap;" vertex="1" parent="1">
                    <mxGeometry x="350" y="510" width="100" height="60" as="geometry"/>
                </mxCell>
                <mxCell id="13" style="edgeStyle=none;html=1;exitX=0;exitY=0.5;exitDx=0;exitDy=0;" edge="1" parent="1" source="11" target="8">
                    <mxGeometry relative="1" as="geometry"/>
                </mxCell>
                <mxCell id="11" value="Update simulation&lt;br&gt;and check collisions" style="rounded=1;whiteSpace=wrap;html=1;absoluteArcSize=1;arcSize=14;strokeWidth=2;" vertex="1" parent="1">
                    <mxGeometry x="510" y="495" width="120" height="90" as="geometry"/>
                </mxCell>
                <mxCell id="18" style="edgeStyle=none;html=1;exitX=0.5;exitY=1;exitDx=0;exitDy=0;" edge="1" parent="1" source="16" target="11">
                    <mxGeometry relative="1" as="geometry"/>
                </mxCell>
                <mxCell id="16" value="AI cars uses NN&lt;br&gt;to control car" style="shape=parallelogram;html=1;strokeWidth=2;perimeter=parallelogramPerimeter;whiteSpace=wrap;rounded=1;arcSize=12;size=0.23;" vertex="1" parent="1">
                    <mxGeometry x="495" y="390" width="150" height="60" as="geometry"/>
                </mxCell>
                <mxCell id="20" style="edgeStyle=none;html=1;exitX=0.5;exitY=1;exitDx=0;exitDy=0;" edge="1" parent="1" source="19" target="3">
                    <mxGeometry relative="1" as="geometry"/>
                </mxCell>
                <mxCell id="19" value="Initialize simulation&lt;br&gt;&amp;nbsp;with cars, AI&lt;br&gt;&amp;nbsp;and circuit" style="shape=parallelogram;html=1;strokeWidth=2;perimeter=parallelogramPerimeter;whiteSpace=wrap;rounded=1;arcSize=12;size=0.23;" vertex="1" parent="1">
                    <mxGeometry x="305" y="260" width="190" height="60" as="geometry"/>
                </mxCell>
            </root>
        </mxGraphModel>
    </diagram>
</mxfile>